<?xml version="1.0" encoding="UTF-8"?>
<svg id="b" data-name="Camada 2" xmlns="http://www.w3.org/2000/svg" width="39.265" height="39.265" xmlns:xlink="http://www.w3.org/1999/xlink" viewBox="0 0 39.265 39.265">
  <defs>
    <linearGradient id="d" data-name="Gradiente sem nome 36" x1="1" y1="19.632" x2="38.265" y2="19.632" gradientUnits="userSpaceOnUse">
      <stop offset="0" stop-color="#f08319"/>
      <stop offset="1" stop-color="#fcd52f"/>
    </linearGradient>
  </defs>
  <g id="c" data-name="Camada 1">
    <path d="M19.61,11.34h6.208c-.317-.228-.648-.449-1.002-.648-1.605-.928-3.299-1.377-5.185-1.377-2.894,0-5.288.979-7.313,3.005-2.018,2.025-3.005,4.419-3.005,7.313s.987,5.288,3.005,7.313c2.025,2.025,4.419,3.005,7.313,3.005,2.231,0,4.19-.619,5.98-1.885,1.539-1.097,2.659-2.452,3.402-4.139h8.757l-.096.376c-1.075,4.087-3.307,7.468-6.628,10.06-3.321,2.585-7.166,3.903-11.415,3.903-5.17,0-9.611-1.826-13.212-5.42-3.594-3.594-5.42-8.042-5.42-13.212s1.826-9.611,5.42-13.212C10.014,2.826,14.462,1,19.632,1c2.666,0,5.251.56,7.689,1.664.921.42,1.804.906,2.629,1.466V1h8.315v18.655h-18.655v-8.315Z" fill="url(#d)" stroke="#432919" stroke-miterlimit="10" stroke-width="2"/>
  </g>
</svg>